<?xml version="1.0" encoding="utf-8"?>
<!-- Generator: Adobe Illustrator 16.0.0, SVG Export Plug-In . SVG Version: 6.00 Build 0)  -->
<!DOCTYPE svg PUBLIC "-//W3C//DTD SVG 1.1//EN" "http://www.w3.org/Graphics/SVG/1.1/DTD/svg11.dtd">
<svg version="1.1" id="Layer_1" xmlns="http://www.w3.org/2000/svg" xmlns:xlink="http://www.w3.org/1999/xlink" x="0px" y="0px"
	 width="122.104px" height="52.349px" viewBox="0 0 122.104 52.349" enable-background="new 0 0 122.104 52.349"
	 xml:space="preserve">
<g>
	<defs>
		<rect id="SVGID_1_" y="0" width="122.104" height="52.348"/>
	</defs>
	<clipPath id="SVGID_2_">
		<use xlink:href="#SVGID_1_"  overflow="visible"/>
	</clipPath>
	<path clip-path="url(#SVGID_2_)" fill="#009FE3" d="M31.567,30.108c-3.344,0-6.69-1.273-9.237-3.82L0.806,4.764
		c-1.074-1.074-1.074-2.815,0-3.891c1.075-1.074,2.818-1.074,3.891,0L26.22,22.398c2.948,2.951,7.748,2.951,10.698,0L58.44,0.874
		c1.075-1.074,2.816-1.074,3.89,0c1.074,1.076,1.074,2.817,0,3.891L40.807,26.288C38.259,28.834,34.914,30.108,31.567,30.108"/>
	<path clip-path="url(#SVGID_2_)" fill="#009FE3" d="M119.064,30.176c-0.703,0-1.407-0.27-1.944-0.805L95.598,7.848
		c-2.95-2.95-7.748-2.95-10.697,0L63.376,29.372c-1.073,1.074-2.815,1.074-3.889,0c-1.074-1.076-1.074-2.816,0-3.889L81.011,3.957
		c5.094-5.093,13.383-5.093,18.479,0l21.524,21.526c1.073,1.073,1.073,2.813,0,3.889C120.474,29.907,119.771,30.176,119.064,30.176"
		/>
	<path clip-path="url(#SVGID_2_)" fill="#EC6608" d="M48.571,30.222c-0.662,0-1.322-0.25-1.832-0.755
		c-1.016-1.011-1.022-2.654-0.011-3.674L71.584,0.768c1.013-1.018,2.657-1.025,3.674-0.014c1.018,1.012,1.022,2.657,0.013,3.673
		L50.416,29.454C49.907,29.966,49.239,30.222,48.571,30.222"/>
	<path clip-path="url(#SVGID_2_)" fill="#009FE3" d="M0.431,41.052c-0.093-0.237-0.128-0.419-0.128-0.673
		c0-0.763,0.67-1.31,1.395-1.31c0.616,0,0.995,0.398,1.233,0.891l2.808,7.567l2.809-7.567c0.234-0.492,0.614-0.891,1.231-0.891
		c0.725,0,1.395,0.547,1.395,1.31c0,0.254-0.035,0.436-0.126,0.673L7.079,51.184c-0.235,0.582-0.545,1.056-1.34,1.056
		c-0.797,0-1.106-0.474-1.341-1.056L0.431,41.052z"/>
	<path clip-path="url(#SVGID_2_)" fill="#009FE3" d="M20.857,40.489c0-0.91,0.58-1.419,1.359-1.419c0.78,0,1.36,0.509,1.36,1.419
		v10.332c0,0.91-0.58,1.419-1.36,1.419c-0.779,0-1.359-0.509-1.359-1.419V40.489z"/>
	<path clip-path="url(#SVGID_2_)" fill="#009FE3" d="M37.055,40.47c0.309-0.837,1.014-1.512,1.937-1.512
		c0.961,0,1.632,0.638,1.94,1.512l3.553,9.896c0.107,0.292,0.142,0.545,0.142,0.673c0,0.709-0.58,1.201-1.248,1.201
		c-0.762,0-1.143-0.401-1.324-0.944l-0.543-1.712h-5.038l-0.543,1.689c-0.18,0.565-0.562,0.967-1.305,0.967
		c-0.725,0-1.34-0.547-1.34-1.274c0-0.291,0.091-0.51,0.125-0.6L37.055,40.47z M37.254,47.073h3.443l-1.684-5.276h-0.038
		L37.254,47.073z"/>
	<path clip-path="url(#SVGID_2_)" fill="#009FE3" d="M54.366,40.599c0-0.855,0.508-1.42,1.412-1.42h3.21
		c2.663,0,4.636,1.744,4.636,4.348c0,2.655-2.048,4.31-4.53,4.31h-2.011v2.984c0,0.909-0.578,1.42-1.359,1.42
		c-0.779,0-1.358-0.511-1.358-1.42V40.599z M57.083,45.435h1.847c1.143,0,1.867-0.835,1.867-1.928c0-1.091-0.724-1.928-1.867-1.928
		h-1.847V45.435z"/>
	<path clip-path="url(#SVGID_2_)" fill="#009FE3" d="M73.029,45.654c0-3.783,2.538-6.695,6.232-6.695
		c3.643,0,6.234,3.003,6.234,6.695c0,3.766-2.518,6.695-6.234,6.695C75.583,52.349,73.029,49.419,73.029,45.654 M82.669,45.654
		c0-2.202-1.142-4.183-3.407-4.183c-2.264,0-3.405,1.98-3.405,4.183c0,2.22,1.104,4.184,3.405,4.184
		C81.564,49.837,82.669,47.874,82.669,45.654"/>
	<path clip-path="url(#SVGID_2_)" fill="#009FE3" d="M103.13,40.779c0,0.711-0.473,1.347-1.217,1.347
		c-0.74,0-1.319-0.544-2.407-0.544c-0.779,0-1.487,0.415-1.487,1.18c0,1.874,6.054,0.674,6.054,5.367c0,2.602-2.14,4.22-4.639,4.22
		c-1.396,0-4.403-0.327-4.403-2.036c0-0.708,0.472-1.292,1.213-1.292c0.853,0,1.867,0.709,3.045,0.709
		c1.194,0,1.848-0.673,1.848-1.565c0-2.146-6.051-0.856-6.051-5.073c0-2.547,2.082-4.132,4.493-4.132
		C100.594,38.958,103.13,39.343,103.13,40.779"/>
	<path clip-path="url(#SVGID_2_)" fill="#009FE3" d="M116.179,41.689h-1.977c-0.868,0-1.229-0.637-1.229-1.255
		c0-0.637,0.451-1.255,1.229-1.255h6.67c0.778,0,1.231,0.618,1.231,1.255c0,0.618-0.361,1.255-1.231,1.255h-1.973v9.131
		c0,0.912-0.583,1.42-1.364,1.42c-0.777,0-1.356-0.508-1.356-1.42V41.689z"/>
	<path clip-path="url(#SVGID_2_)" fill="#009FE3" d="M81.935,21.569H71.144c-1.487,0-2.693-1.205-2.693-2.692
		c0-1.487,1.206-2.692,2.693-2.692h10.791c1.487,0,2.692,1.205,2.692,2.692C84.627,20.365,83.422,21.569,81.935,21.569"/>
</g>
</svg>
