<?xml version="1.0" encoding="utf-8"?>
<!-- Generator: Adobe Illustrator 22.1.0, SVG Export Plug-In . SVG Version: 6.00 Build 0)  -->
<svg version="1.1" id="Calque_1" xmlns="http://www.w3.org/2000/svg" xmlns:xlink="http://www.w3.org/1999/xlink" x="0px" y="0px"
	 viewBox="0 0 139.2 71.2" width="139.2" height="71.2" style="enable-background:new 0 0 139.2 71.2;" xml:space="preserve">
<style type="text/css">
	.st0{fill:#132B46;}
	.st1{fill:#DA4555;}
	.st2{fill:none;stroke:#EFAE42;stroke-width:3;stroke-linecap:round;stroke-linejoin:round;stroke-miterlimit:10;}
</style>
<g>
	<path class="st0" d="M3.3,70.7H1.6v-1.5h1.6c0.1,0,0.1-0.1,0.1-0.2v-0.1c0-0.1,0-0.2-0.1-0.2H1.6v-1.4h1.7c0.1,0,0.1-0.1,0.1-0.2
		v-0.1c0-0.1,0-0.2-0.1-0.2H1.2C1.1,66.9,1,67,1,67.1v3.8c0,0.1,0.1,0.2,0.2,0.2h2.1c0.1,0,0.1-0.1,0.1-0.2v-0.1
		C3.4,70.7,3.4,70.7,3.3,70.7z"/>
	<path class="st0" d="M7.7,68.9l1.2-1.8c0,0,0-0.1,0-0.1c0-0.1-0.1-0.1-0.3-0.1h0c-0.1,0-0.2,0-0.3,0.1l-1,1.5l-1-1.4
		c0-0.1-0.1-0.1-0.3-0.1H6.1c-0.2,0-0.3,0-0.3,0.1c0,0,0,0.1,0,0.1l1.2,1.8l-1.3,2c0,0,0,0.1,0,0.1c0,0.1,0.1,0.1,0.3,0.1h0
		c0.1,0,0.2,0,0.3-0.1l1.1-1.7L8.5,71c0,0.1,0.1,0.1,0.3,0.1h0.1c0.2,0,0.3,0,0.3-0.1c0,0,0-0.1,0-0.1L7.7,68.9z"/>
	<path class="st0" d="M12.9,66.9h-1.2c-0.1,0-0.2,0.1-0.2,0.2V71c0,0.1,0.1,0.1,0.2,0.1h0c0.2,0,0.2,0,0.2-0.1v-1.7H13
		c0.3,0,1.3-0.1,1.3-1.2C14.3,67.1,13.5,66.9,12.9,66.9z M13,68.9h-0.9v-1.5h0.9c0.4,0,0.8,0.1,0.8,0.7C13.7,68.8,13.2,68.9,13,68.9
		z"/>
	<path class="st0" d="M19.1,70.7h-1.8v-1.5h1.6c0.1,0,0.1-0.1,0.1-0.2v-0.1c0-0.1,0-0.2-0.1-0.2h-1.6v-1.4h1.7
		c0.1,0,0.1-0.1,0.1-0.2v-0.1c0-0.1,0-0.2-0.1-0.2H17c-0.1,0-0.2,0.1-0.2,0.2v3.8c0,0.1,0.1,0.2,0.2,0.2h2.1c0.1,0,0.1-0.1,0.1-0.2
		v-0.1C19.2,70.7,19.2,70.7,19.1,70.7z"/>
	<path class="st0" d="M24.4,69.8c-0.2-0.4-0.3-0.7-0.5-0.7v0c0.4-0.2,0.7-0.5,0.7-1c0-0.8-0.5-1.1-1.4-1.1h-1
		c-0.1,0-0.2,0.1-0.2,0.2V71c0,0.1,0.1,0.1,0.2,0.1h0c0.2,0,0.2,0,0.2-0.1v-1.7H23c0.5,0,0.7,0.1,0.9,0.6l0.5,1.2
		c0,0.1,0.1,0.1,0.2,0.1h0.1c0.2,0,0.3,0,0.3-0.1c0,0,0,0,0-0.1L24.4,69.8z M23.3,68.8h-0.8v-1.4h0.7c0.5,0,0.8,0.2,0.8,0.7
		C24,68.5,23.7,68.8,23.3,68.8z"/>
	<path class="st0" d="M29.9,66.9h-2.8c-0.1,0-0.1,0.1-0.1,0.2v0.1c0,0.1,0,0.2,0.1,0.2h1.2V71c0,0.1,0.1,0.1,0.2,0.1h0
		c0.2,0,0.2,0,0.2-0.1v-3.6h1.1c0.1,0,0.1-0.1,0.1-0.2v-0.1C30,67,30,66.9,29.9,66.9z"/>
	<path class="st0" d="M32.8,66.9L32.8,66.9c-0.2,0-0.3,0-0.3,0.1v4c0,0.1,0.1,0.1,0.2,0.1h0c0.2,0,0.2,0,0.2-0.1v-4
		C33,67,33,66.9,32.8,66.9z"/>
	<path class="st0" d="M37.1,68.7c-0.4-0.2-0.8-0.3-0.8-0.7c0-0.4,0.3-0.7,0.8-0.7c0.5,0,0.7,0.2,0.8,0.2c0.1,0,0.2-0.2,0.2-0.3
		c0-0.2-0.6-0.4-1-0.4c-0.8,0-1.3,0.5-1.3,1.1c0,0.8,0.5,1,1,1.2c0.5,0.2,0.9,0.3,0.9,0.8c0,0.4-0.3,0.7-0.8,0.7c-0.6,0-1-0.3-1-0.3
		c-0.1,0-0.2,0.2-0.2,0.3c0,0.2,0.5,0.4,1.2,0.4c0.8,0,1.3-0.4,1.3-1.2C38.2,69.2,37.6,68.9,37.1,68.7z"/>
	<path class="st0" d="M43.1,70.7h-1.8v-1.5h1.6c0.1,0,0.1-0.1,0.1-0.2v-0.1c0-0.1,0-0.2-0.1-0.2h-1.6v-1.4h1.7
		c0.1,0,0.1-0.1,0.1-0.2v-0.1c0-0.1,0-0.2-0.1-0.2H41c-0.1,0-0.2,0.1-0.2,0.2v3.8c0,0.1,0.1,0.2,0.2,0.2h2.1c0.1,0,0.1-0.1,0.1-0.2
		v-0.1C43.2,70.7,43.2,70.7,43.1,70.7z"/>
	<path class="st0" d="M51.9,70.4c-0.1,0-0.4,0.3-1,0.3c-0.9,0-1.4-0.5-1.4-1.7c0-1.2,0.4-1.7,1.4-1.7c0.6,0,0.9,0.3,0.9,0.3
		c0.1,0,0.2-0.2,0.2-0.3c0-0.2-0.6-0.4-1.1-0.4c-1.3,0-1.9,0.7-1.9,2.1c0,1.5,0.6,2.1,1.9,2.1c0.7,0,1.2-0.3,1.2-0.4
		C52.1,70.7,52,70.4,51.9,70.4z"/>
	<path class="st0" d="M56.3,66.9c-1.2,0-1.8,0.7-1.8,2.1c0,1.4,0.6,2.1,1.8,2.1c1.2,0,1.9-0.7,1.9-2.1
		C58.2,67.6,57.5,66.9,56.3,66.9z M56.3,70.7c-0.8,0-1.3-0.6-1.3-1.7c0-1.1,0.5-1.7,1.3-1.7c0.8,0,1.3,0.6,1.3,1.7
		C57.6,70.1,57.1,70.7,56.3,70.7z"/>
	<path class="st0" d="M64.6,66.9h-0.2c-0.1,0-0.2,0-0.3,0.1L63,69l-0.2,0.3L62.7,69l-1.1-2c0-0.1-0.1-0.1-0.3-0.1h-0.2
		c-0.2,0-0.2,0-0.2,0.1v4c0,0.1,0.1,0.1,0.2,0.1h0c0.2,0,0.2,0,0.2-0.1v-3.3l0,0l1.2,2.1c0,0.1,0.1,0.1,0.1,0.1H63
		c0.1,0,0.1,0,0.1-0.1l1.2-2.1l0,0V71c0,0.1,0.1,0.1,0.2,0.1h0c0.2,0,0.2,0,0.2-0.1v-4C64.8,67,64.8,66.9,64.6,66.9z"/>
	<path class="st0" d="M69.1,66.9h-1.2c-0.1,0-0.2,0.1-0.2,0.2V71c0,0.1,0.1,0.1,0.2,0.1h0c0.2,0,0.2,0,0.2-0.1v-1.7h0.9
		c0.3,0,1.3-0.1,1.3-1.2C70.4,67.1,69.6,66.9,69.1,66.9z M69.2,68.9h-0.9v-1.5h0.9c0.4,0,0.8,0.1,0.8,0.7
		C69.9,68.8,69.4,68.9,69.2,68.9z"/>
	<path class="st0" d="M75.5,66.9h-2.8c-0.1,0-0.1,0.1-0.1,0.2v0.1c0,0.1,0,0.2,0.1,0.2h1.2V71c0,0.1,0.1,0.1,0.2,0.1h0
		c0.2,0,0.2,0,0.2-0.1v-3.6h1.1c0.1,0,0.1-0.1,0.1-0.2v-0.1C75.6,67,75.5,66.9,75.5,66.9z"/>
	<path class="st0" d="M79.7,67c0-0.1-0.1-0.1-0.2-0.1h-0.2c-0.1,0-0.2,0-0.2,0.1l-1.4,3.9c0,0,0,0.1,0,0.1c0,0.1,0.1,0.1,0.3,0.1h0
		c0.1,0,0.2,0,0.2-0.1l0.3-1h1.8l0.4,1c0,0.1,0.1,0.1,0.2,0.1h0c0.2,0,0.3,0,0.3-0.1c0,0,0,0,0-0.1L79.7,67z M78.6,69.6l0.6-1.8
		c0-0.1,0.1-0.2,0.1-0.3h0c0,0.1,0,0.2,0.1,0.3l0.6,1.8H78.6z"/>
	<path class="st0" d="M85.5,68.9L85.5,68.9c0.3-0.1,0.7-0.5,0.7-0.9c0-0.6-0.5-1.1-1.3-1.1h-1.1c-0.1,0-0.2,0.1-0.2,0.2v3.8
		c0,0.1,0.1,0.2,0.2,0.2h1c1,0,1.6-0.4,1.6-1.2C86.4,69.1,85.5,68.9,85.5,68.9z M84.1,67.4h0.7c0.6,0,0.9,0.2,0.9,0.7
		c0,0.4-0.3,0.7-0.8,0.7h-0.7V67.4z M85,70.7h-0.9v-1.5h0.8c0.6,0,0.9,0.3,0.9,0.7C85.8,70.4,85.5,70.7,85,70.7z"/>
	<path class="st0" d="M91.1,70.7h-1.6V67c0-0.1-0.1-0.1-0.2-0.1h0C89,66.9,89,67,89,67v3.9c0,0.1,0.1,0.2,0.2,0.2h2
		c0.1,0,0.1-0.1,0.1-0.2v-0.1C91.3,70.7,91.2,70.7,91.1,70.7z"/>
	<path class="st0" d="M96,70.7h-1.8v-1.5h1.6c0.1,0,0.1-0.1,0.1-0.2v-0.1c0-0.1,0-0.2-0.1-0.2h-1.6v-1.4h1.7c0.1,0,0.1-0.1,0.1-0.2
		v-0.1c0-0.1,0-0.2-0.1-0.2h-2.1c-0.1,0-0.2,0.1-0.2,0.2v3.8c0,0.1,0.1,0.2,0.2,0.2H96c0.1,0,0.1-0.1,0.1-0.2v-0.1
		C96.1,70.7,96,70.7,96,70.7z"/>
	<path class="st0" d="M104.3,70.7h-1.8v-1.5h1.6c0.1,0,0.1-0.1,0.1-0.2v-0.1c0-0.1,0-0.2-0.1-0.2h-1.6v-1.4h1.7
		c0.1,0,0.1-0.1,0.1-0.2v-0.1c0-0.1,0-0.2-0.1-0.2h-2.1c-0.1,0-0.2,0.1-0.2,0.2v3.8c0,0.1,0.1,0.2,0.2,0.2h2.1
		c0.1,0,0.1-0.1,0.1-0.2v-0.1C104.4,70.7,104.4,70.7,104.3,70.7z"/>
	<path class="st0" d="M110.1,66.9L110.1,66.9c-0.2,0-0.3,0-0.3,0.1v3.2l-0.2-0.3l-1.9-2.9c-0.1-0.1-0.1-0.1-0.3-0.1h-0.1
		c-0.2,0-0.2,0-0.2,0.1v4c0,0.1,0.1,0.1,0.2,0.1h0c0.2,0,0.2,0,0.2-0.1v-3.2l0.2,0.3l2,3c0,0.1,0.1,0.1,0.2,0.1h0.1
		c0.2,0,0.2,0,0.2-0.1v-4C110.3,67,110.2,66.9,110.1,66.9z"/>
	<path class="st0" d="M118.7,70.7H117V67c0-0.1-0.1-0.1-0.2-0.1h0c-0.2,0-0.2,0-0.2,0.1v3.9c0,0.1,0.1,0.2,0.2,0.2h2
		c0.1,0,0.1-0.1,0.1-0.2v-0.1C118.8,70.7,118.7,70.7,118.7,70.7z"/>
	<path class="st0" d="M121.5,66.9L121.5,66.9c-0.2,0-0.3,0-0.3,0.1v4c0,0.1,0.1,0.1,0.2,0.1h0c0.2,0,0.2,0,0.2-0.1v-4
		C121.7,67,121.7,66.9,121.5,66.9z"/>
	<path class="st0" d="M127.5,69h-1c-0.1,0-0.1,0.1-0.1,0.2v0.1c0,0.1,0,0.2,0.1,0.2h0.7v1.2c-0.2,0-0.5,0.1-0.8,0.1
		c-1.1,0-1.3-0.8-1.3-1.7c0-1,0.3-1.7,1.4-1.7c0.6,0,0.9,0.3,0.9,0.3c0.1,0,0.2-0.2,0.2-0.3c0-0.2-0.6-0.4-1.1-0.4
		c-1.3,0-1.9,0.7-1.9,2.2c0,1.4,0.7,2.1,1.9,2.1c0.7,0,1.3-0.1,1.3-0.4v-1.6C127.7,69,127.6,69,127.5,69z"/>
	<path class="st0" d="M133.5,66.9L133.5,66.9c-0.2,0-0.3,0-0.3,0.1v3.2l-0.2-0.3l-1.9-2.9c-0.1-0.1-0.1-0.1-0.3-0.1h-0.1
		c-0.2,0-0.2,0-0.2,0.1v4c0,0.1,0.1,0.1,0.2,0.1h0c0.2,0,0.2,0,0.2-0.1v-3.2l0.2,0.3l2,3c0,0.1,0.1,0.1,0.2,0.1h0.1
		c0.2,0,0.2,0,0.2-0.1v-4C133.7,67,133.7,66.9,133.5,66.9z"/>
	<path class="st0" d="M138.9,70.7h-1.8v-1.5h1.6c0.1,0,0.1-0.1,0.1-0.2v-0.1c0-0.1,0-0.2-0.1-0.2h-1.6v-1.4h1.7
		c0.1,0,0.1-0.1,0.1-0.2v-0.1c0-0.1,0-0.2-0.1-0.2h-2.1c-0.1,0-0.2,0.1-0.2,0.2v3.8c0,0.1,0.1,0.2,0.2,0.2h2.1
		c0.1,0,0.1-0.1,0.1-0.2v-0.1C139.1,70.7,139,70.7,138.9,70.7z"/>
</g>
<g>
	<path class="st1" d="M71.8,44.8c-1.7-1.7-3.7-2.5-6-2.5h-3.3c-0.2,0-0.3,0-0.4,0.1c-0.1,0.1-0.3,0.1-0.4,0.2s-0.2,0.2-0.2,0.4
		s-0.1,0.3-0.1,0.4v14.8c0,0.2,0,0.3,0.1,0.4s0.1,0.3,0.2,0.4s0.2,0.2,0.4,0.2c0.1,0.1,0.3,0.1,0.4,0.1h3.3c2.4,0,4.4-0.8,6-2.5
		c1.7-1.7,2.5-3.7,2.5-6c0-1.2-0.2-2.3-0.6-3.3C73.2,46.5,72.6,45.6,71.8,44.8z M71.6,53.2c-0.3,0.7-0.8,1.4-1.4,2
		c-1.2,1.2-2.7,1.8-4.4,1.8h-2.2V44.5h2.2c1.7,0,3.2,0.6,4.4,1.8c1.2,1.2,1.8,2.7,1.8,4.4C72,51.7,71.9,52.5,71.6,53.2z"/>
	<path class="st1" d="M80.7,43.9c-0.4,0-0.7,0.1-0.9,0.4s-0.4,0.6-0.4,0.9c0,0.4,0.1,0.7,0.4,0.9s0.6,0.4,0.9,0.4
		c0.4,0,0.7-0.1,0.9-0.4s0.4-0.6,0.4-0.9c0-0.4-0.1-0.7-0.4-0.9S81,43.9,80.7,43.9z"/>
	<path class="st1" d="M80.7,47.4c-0.3,0-0.6,0.1-0.8,0.3c-0.2,0.2-0.3,0.5-0.3,0.8v9.7c0,0.3,0.1,0.6,0.3,0.8
		c0.2,0.2,0.5,0.3,0.8,0.3s0.6-0.1,0.8-0.3s0.3-0.5,0.3-0.8v-9.7c0-0.3-0.1-0.6-0.3-0.8S81,47.4,80.7,47.4z"/>
	<path class="st1" d="M95.1,47.7c-0.3-0.1-0.6-0.2-1-0.2c-0.4,0-0.7-0.1-1-0.1c-0.7,0-1.4,0.1-2,0.3s-1.2,0.6-1.7,1v-0.2
		c0-0.3-0.1-0.6-0.3-0.8s-0.5-0.3-0.8-0.3c-0.3,0-0.6,0.1-0.8,0.3s-0.3,0.5-0.3,0.8v9.7c0,0.3,0.1,0.6,0.3,0.8s0.5,0.3,0.8,0.3
		c0.3,0,0.6-0.1,0.8-0.3s0.3-0.5,0.3-0.8v-4.9c0-0.5,0.1-1,0.3-1.5c0.2-0.5,0.5-0.9,0.8-1.2c0.3-0.3,0.7-0.6,1.2-0.8
		c0.5-0.2,0.9-0.3,1.5-0.3c0.5,0,1,0.1,1.5,0.3c0.2,0.1,0.3,0.1,0.5,0.1c0.2,0,0.3,0,0.4-0.1c0.1-0.1,0.3-0.1,0.4-0.2
		c0.1-0.1,0.2-0.2,0.2-0.4c0.1-0.1,0.1-0.3,0.1-0.4c0-0.3-0.1-0.6-0.3-0.7C95.6,47.9,95.4,47.8,95.1,47.7z"/>
	<path class="st1" d="M110.7,49.1c-1.2-1.2-2.6-1.7-4.2-1.7c-1.6,0-3.1,0.6-4.2,1.7c-1.2,1.2-1.7,2.6-1.7,4.2c0,1.6,0.6,3.1,1.7,4.2
		c1.2,1.2,2.6,1.7,4.2,1.7c1.5,0,2.8-0.5,3.9-1.5c0.2-0.2,0.3-0.5,0.3-0.8c0-0.3-0.1-0.6-0.3-0.8c-0.2-0.2-0.5-0.3-0.8-0.3
		c-0.3,0-0.5,0.1-0.7,0.3c-0.3,0.3-0.7,0.5-1.1,0.6c-0.4,0.1-0.8,0.2-1.3,0.2c-0.4,0-0.8-0.1-1.2-0.2c-0.4-0.1-0.7-0.3-1-0.5
		c-0.3-0.2-0.6-0.5-0.8-0.8c-0.2-0.3-0.4-0.7-0.5-1.1h8.4c0.3,0,0.6-0.1,0.8-0.3s0.3-0.5,0.3-0.8c0-0.8-0.1-1.6-0.4-2.3
		C111.7,50.3,111.2,49.7,110.7,49.1z M102.8,52.2c0.1-0.4,0.3-0.7,0.5-1.1s0.5-0.6,0.8-0.8c0.3-0.2,0.7-0.4,1.1-0.5s0.8-0.2,1.2-0.2
		c0.4,0,0.8,0.1,1.2,0.2s0.7,0.3,1,0.5c0.3,0.2,0.6,0.5,0.8,0.8s0.4,0.7,0.5,1.1H102.8z"/>
	<path class="st1" d="M120.5,50.7c0.3-0.3,0.7-0.6,1.2-0.8c0.5-0.2,0.9-0.3,1.5-0.3c0.5,0,0.9,0.1,1.3,0.2c0.4,0.2,0.8,0.4,1.1,0.7
		c0.2,0.2,0.5,0.3,0.7,0.3c0.3,0,0.6-0.1,0.8-0.3c0.2-0.2,0.3-0.5,0.3-0.8c0-0.3-0.1-0.6-0.4-0.8c-1.1-1-2.4-1.4-3.9-1.4
		c-1.6,0-3.1,0.6-4.2,1.7s-1.7,2.6-1.7,4.2c0,1.6,0.6,3.1,1.7,4.2s2.6,1.7,4.2,1.7c1.5,0,2.8-0.5,3.9-1.5c0.2-0.2,0.4-0.5,0.4-0.8
		c0-0.3-0.1-0.6-0.3-0.8c-0.2-0.2-0.5-0.3-0.8-0.3c-0.3,0-0.5,0.1-0.7,0.2c-0.4,0.3-0.7,0.5-1.1,0.7c-0.4,0.2-0.8,0.2-1.3,0.2
		c-0.5,0-1-0.1-1.5-0.3c-0.5-0.2-0.9-0.5-1.2-0.8c-0.3-0.3-0.6-0.7-0.8-1.2c-0.2-0.5-0.3-0.9-0.3-1.5c0-0.5,0.1-1,0.3-1.5
		C119.9,51.4,120.1,51,120.5,50.7z"/>
	<path class="st1" d="M138.9,57.4c-0.2-0.2-0.5-0.3-0.8-0.3c-1.4,0-2.1-0.7-2.1-2.1v-5.4h1.3c0.3,0,0.6-0.1,0.8-0.3s0.3-0.5,0.3-0.8
		c0-0.3-0.1-0.6-0.3-0.8s-0.5-0.3-0.8-0.3H136v-4c0-0.3-0.1-0.6-0.3-0.8c-0.2-0.2-0.5-0.3-0.8-0.3c-0.3,0-0.6,0.1-0.8,0.3
		s-0.3,0.5-0.3,0.8v4h-0.5c-0.3,0-0.6,0.1-0.8,0.3c-0.2,0.2-0.3,0.5-0.3,0.8c0,0.3,0.1,0.6,0.3,0.8c0.2,0.2,0.5,0.3,0.8,0.3h0.5V55
		c0,2.9,1.5,4.3,4.4,4.3c0.3,0,0.6-0.1,0.8-0.3c0.2-0.2,0.3-0.5,0.3-0.8C139.2,57.9,139.1,57.6,138.9,57.4z"/>
</g>
<g>
	<path class="st1" d="M61.2,10.5c-1-1.2-2.9-1.4-4.1-0.4c-4.3,3.5-9.6,7.9-15.4,12.5L32,1.7c-0.5-1-1.5-1.7-2.6-1.7
		c-1.1,0-2.2,0.6-2.7,1.6L0.3,55.7c-0.6,1.2-0.3,2.7,0.8,3.6c0.5,0.4,1.2,0.7,1.8,0.7c0.6,0,1.3-0.2,1.8-0.6
		C5,59.1,24.6,43.7,42.3,29.6c0.1-0.1,0.2-0.2,0.4-0.3c6.8-5.4,13.2-10.6,18.2-14.7C62,13.6,62.2,11.7,61.2,10.5z M11.2,46.7
		l18.1-37L37,26.3C27.7,33.7,18.1,41.3,11.2,46.7z"/>
	<path class="st1" d="M47.7,37.2l-2-4.2c-0.7-1.5-2.4-2.1-3.9-1.4c-1.5,0.7-2.1,2.4-1.4,3.9l2,4.3c0,0,0,0.1,0,0.1L52,58.6
		c0.5,1,1.5,1.6,2.6,1.6c0.4,0,0.9-0.1,1.3-0.3c1.4-0.7,2-2.5,1.3-3.9L47.7,37.2z"/>
</g>
<path class="st2" d="M43.9,18.4"/>
<g>
	<path class="st0" d="M69.2,27.9c0.2,0,0.4-0.1,0.6-0.2c0.2-0.2,0.2-0.4,0.2-0.6c0-0.2-0.1-0.4-0.2-0.6c-0.2-0.2-0.4-0.2-0.6-0.2H62
		c-0.1,0-0.2,0-0.3,0.1c-0.1,0-0.2,0.1-0.3,0.2c-0.1,0.1-0.1,0.2-0.2,0.3c0,0.1-0.1,0.2-0.1,0.3V38c0,0.1,0,0.2,0.1,0.3
		c0,0.1,0.1,0.2,0.2,0.3c0.1,0.1,0.2,0.1,0.3,0.2c0.1,0,0.2,0.1,0.3,0.1h7.3c0.2,0,0.4-0.1,0.6-0.2c0.2-0.2,0.2-0.4,0.2-0.6
		c0-0.2-0.1-0.4-0.2-0.6c-0.2-0.2-0.4-0.2-0.6-0.2h-6.4v-3.8h4.6c0.2,0,0.4-0.1,0.6-0.2c0.2-0.2,0.2-0.4,0.2-0.6
		c0-0.2-0.1-0.4-0.2-0.6c-0.2-0.2-0.4-0.2-0.6-0.2h-4.6v-3.8H69.2z"/>
	<path class="st0" d="M77.8,27.9c0.5,0,1.1,0.1,1.5,0.3s0.9,0.4,1.3,0.7c0.2,0.2,0.4,0.2,0.6,0.2c0.1,0,0.2,0,0.3-0.1
		c0.1,0,0.2-0.1,0.3-0.2c0.1-0.1,0.1-0.2,0.2-0.3s0.1-0.2,0.1-0.3c0-0.2-0.1-0.4-0.2-0.6c-1.2-1-2.5-1.5-4-1.5
		c-1.7,0-3.2,0.6-4.5,1.8c-1.2,1.2-1.8,2.7-1.8,4.4c0,1.7,0.6,3.2,1.8,4.5c1.2,1.2,2.7,1.8,4.5,1.8c1.5,0,2.8-0.5,4-1.4
		c0.2-0.2,0.3-0.4,0.3-0.6c0-0.1,0-0.2-0.1-0.3c0-0.1-0.1-0.2-0.2-0.3c-0.1-0.1-0.2-0.1-0.3-0.2c-0.1,0-0.2-0.1-0.3-0.1
		c-0.2,0-0.4,0.1-0.5,0.1c-0.8,0.7-1.8,1-2.9,1c-1.3,0-2.4-0.5-3.3-1.4c-0.9-0.9-1.3-2-1.3-3.3c0-1.3,0.4-2.4,1.3-3.3
		C75.4,28.4,76.5,27.9,77.8,27.9z"/>
	<path class="st0" d="M92.6,37.4c-0.2-0.2-0.4-0.2-0.6-0.2h-5.8V27.1c0-0.2-0.1-0.4-0.2-0.6s-0.4-0.2-0.6-0.2s-0.4,0.1-0.6,0.2
		c-0.2,0.2-0.2,0.4-0.2,0.6V38c0,0.1,0,0.2,0.1,0.3c0,0.1,0.1,0.2,0.2,0.3c0.1,0.1,0.2,0.1,0.3,0.2s0.2,0.1,0.3,0.1H92
		c0.2,0,0.4-0.1,0.6-0.2c0.2-0.2,0.2-0.4,0.2-0.6C92.8,37.8,92.7,37.6,92.6,37.4z"/>
</g>
</svg>
